%TF.GenerationSoftware,KiCad,Pcbnew,7.0.1*%
%TF.CreationDate,2023-07-10T14:16:02+02:00*%
%TF.ProjectId,RasPi-Car,52617350-692d-4436-9172-2e6b69636164,rev?*%
%TF.SameCoordinates,Original*%
%TF.FileFunction,Soldermask,Bot*%
%TF.FilePolarity,Negative*%
%FSLAX46Y46*%
G04 Gerber Fmt 4.6, Leading zero omitted, Abs format (unit mm)*
G04 Created by KiCad (PCBNEW 7.0.1) date 2023-07-10 14:16:02*
%MOMM*%
%LPD*%
G01*
G04 APERTURE LIST*
G04 Aperture macros list*
%AMRoundRect*
0 Rectangle with rounded corners*
0 $1 Rounding radius*
0 $2 $3 $4 $5 $6 $7 $8 $9 X,Y pos of 4 corners*
0 Add a 4 corners polygon primitive as box body*
4,1,4,$2,$3,$4,$5,$6,$7,$8,$9,$2,$3,0*
0 Add four circle primitives for the rounded corners*
1,1,$1+$1,$2,$3*
1,1,$1+$1,$4,$5*
1,1,$1+$1,$6,$7*
1,1,$1+$1,$8,$9*
0 Add four rect primitives between the rounded corners*
20,1,$1+$1,$2,$3,$4,$5,0*
20,1,$1+$1,$4,$5,$6,$7,0*
20,1,$1+$1,$6,$7,$8,$9,0*
20,1,$1+$1,$8,$9,$2,$3,0*%
G04 Aperture macros list end*
%ADD10R,1.700000X1.700000*%
%ADD11O,1.700000X1.700000*%
%ADD12R,1.350000X1.800000*%
%ADD13O,1.350000X1.800000*%
%ADD14C,1.600000*%
%ADD15O,1.600000X1.600000*%
%ADD16R,1.600000X1.600000*%
%ADD17C,2.100000*%
%ADD18C,2.000000*%
%ADD19R,1.100000X1.800000*%
%ADD20RoundRect,0.275000X0.275000X0.625000X-0.275000X0.625000X-0.275000X-0.625000X0.275000X-0.625000X0*%
%ADD21R,2.000000X1.905000*%
%ADD22O,2.000000X1.905000*%
%ADD23R,1.800000X1.800000*%
%ADD24C,1.800000*%
%ADD25RoundRect,0.275000X-0.275000X-0.625000X0.275000X-0.625000X0.275000X0.625000X-0.275000X0.625000X0*%
%ADD26R,2.600000X2.600000*%
%ADD27O,2.600000X2.600000*%
%ADD28C,5.600000*%
%ADD29C,1.524000*%
G04 APERTURE END LIST*
D10*
%TO.C,J10*%
X187198000Y-93980000D03*
D11*
X187198000Y-96520000D03*
X187198000Y-99060000D03*
X187198000Y-101600000D03*
%TD*%
D12*
%TO.C,U1*%
X114477800Y-89154000D03*
D13*
X116177800Y-89154000D03*
X117877800Y-89154000D03*
X119577800Y-89154000D03*
X121277800Y-89154000D03*
%TD*%
D10*
%TO.C,J6*%
X179324000Y-93980000D03*
D11*
X179324000Y-96520000D03*
X179324000Y-99060000D03*
X179324000Y-101600000D03*
%TD*%
D14*
%TO.C,R2*%
X139750800Y-105968800D03*
D15*
X147370800Y-105968800D03*
%TD*%
D16*
%TO.C,C7*%
X167767000Y-108006000D03*
D14*
X167767000Y-111506000D03*
%TD*%
%TO.C,R11*%
X154051000Y-115824000D03*
D15*
X154051000Y-123444000D03*
%TD*%
D14*
%TO.C,R16*%
X99822000Y-124333000D03*
D15*
X107442000Y-124333000D03*
%TD*%
D10*
%TO.C,J3*%
X158470600Y-118643400D03*
D11*
X158470600Y-121183400D03*
X158470600Y-123723400D03*
X158470600Y-126263400D03*
%TD*%
D14*
%TO.C,C9*%
X162864800Y-106045000D03*
X160364800Y-106045000D03*
%TD*%
%TO.C,R13*%
X168910000Y-98552000D03*
D15*
X168910000Y-96012000D03*
%TD*%
D17*
%TO.C,J1*%
X99822000Y-102997000D03*
X99822000Y-97917000D03*
X99822000Y-92837000D03*
X99822000Y-87757000D03*
%TD*%
D14*
%TO.C,C3*%
X121589800Y-93472000D03*
X119089800Y-93472000D03*
%TD*%
%TO.C,C8*%
X128758000Y-92583000D03*
X126258000Y-92583000D03*
%TD*%
%TO.C,R10*%
X152908000Y-112522000D03*
D15*
X145288000Y-112522000D03*
%TD*%
D14*
%TO.C,C15*%
X114350800Y-93472000D03*
X116850800Y-93472000D03*
%TD*%
%TO.C,R17*%
X149656800Y-105968800D03*
D15*
X157276800Y-105968800D03*
%TD*%
D14*
%TO.C,R4*%
X109728000Y-128397000D03*
D15*
X117348000Y-128397000D03*
%TD*%
D14*
%TO.C,R15*%
X107442000Y-128397000D03*
D15*
X99822000Y-128397000D03*
%TD*%
D16*
%TO.C,C2*%
X139877800Y-94613349D03*
D14*
X139877800Y-98113349D03*
%TD*%
D16*
%TO.C,C13*%
X173863000Y-99989000D03*
D14*
X173863000Y-102489000D03*
%TD*%
D10*
%TO.C,JP1*%
X156845000Y-135128000D03*
D11*
X159385000Y-135128000D03*
%TD*%
D18*
%TO.C,RV1*%
X191516000Y-112776000D03*
X193929000Y-107950000D03*
X196342000Y-112776000D03*
%TD*%
D14*
%TO.C,C4*%
X145358800Y-99314000D03*
X147858800Y-99314000D03*
%TD*%
%TO.C,R21*%
X118901000Y-98044000D03*
D15*
X116361000Y-98044000D03*
%TD*%
D10*
%TO.C,J9*%
X195072000Y-93980000D03*
D11*
X195072000Y-96520000D03*
X195072000Y-99060000D03*
X195072000Y-101600000D03*
%TD*%
D10*
%TO.C,J7*%
X183261000Y-93980000D03*
D11*
X183261000Y-96520000D03*
X183261000Y-99060000D03*
X183261000Y-101600000D03*
%TD*%
D16*
%TO.C,C6*%
X185801000Y-108133000D03*
D14*
X185801000Y-111633000D03*
%TD*%
D19*
%TO.C,Q4*%
X109601000Y-103105000D03*
D20*
X108331000Y-105175000D03*
X107061000Y-103105000D03*
%TD*%
D16*
%TO.C,A1*%
X162991800Y-116332000D03*
D15*
X162991800Y-118872000D03*
X162991800Y-121412000D03*
X162991800Y-123952000D03*
X162991800Y-126492000D03*
X162991800Y-129032000D03*
X162991800Y-131572000D03*
X162991800Y-134112000D03*
X175691800Y-134112000D03*
X175691800Y-131572000D03*
X175691800Y-129032000D03*
X175691800Y-126492000D03*
X175691800Y-123952000D03*
X175691800Y-121412000D03*
X175691800Y-118872000D03*
X175691800Y-116332000D03*
%TD*%
D21*
%TO.C,Q3*%
X108966000Y-92456000D03*
D22*
X108966000Y-89916000D03*
X108966000Y-87376000D03*
%TD*%
D14*
%TO.C,R22*%
X132080000Y-92811600D03*
D15*
X134620000Y-92811600D03*
%TD*%
D16*
%TO.C,C5*%
X154406600Y-96509200D03*
D14*
X154406600Y-99009200D03*
%TD*%
D10*
%TO.C,J2*%
X188772800Y-86614000D03*
D11*
X188772800Y-89154000D03*
X186232800Y-86614000D03*
X186232800Y-89154000D03*
X183692800Y-86614000D03*
X183692800Y-89154000D03*
X181152800Y-86614000D03*
X181152800Y-89154000D03*
X178612800Y-86614000D03*
X178612800Y-89154000D03*
X176072800Y-86614000D03*
X176072800Y-89154000D03*
X173532800Y-86614000D03*
X173532800Y-89154000D03*
X170992800Y-86614000D03*
X170992800Y-89154000D03*
X168452800Y-86614000D03*
X168452800Y-89154000D03*
X165912800Y-86614000D03*
X165912800Y-89154000D03*
X163372800Y-86614000D03*
X163372800Y-89154000D03*
X160832800Y-86614000D03*
X160832800Y-89154000D03*
X158292800Y-86614000D03*
X158292800Y-89154000D03*
X155752800Y-86614000D03*
X155752800Y-89154000D03*
X153212800Y-86614000D03*
X153212800Y-89154000D03*
X150672800Y-86614000D03*
X150672800Y-89154000D03*
X148132800Y-86614000D03*
X148132800Y-89154000D03*
X145592800Y-86614000D03*
X145592800Y-89154000D03*
X143052800Y-86614000D03*
X143052800Y-89154000D03*
X140512800Y-86614000D03*
X140512800Y-89154000D03*
%TD*%
D23*
%TO.C,D4*%
X194081400Y-87122000D03*
D24*
X199161400Y-87122000D03*
X196621400Y-87122000D03*
%TD*%
D14*
%TO.C,R8*%
X135305800Y-109220000D03*
D15*
X142925800Y-109220000D03*
%TD*%
D19*
%TO.C,Q1*%
X162966400Y-98240800D03*
D25*
X164236400Y-96170800D03*
X165506400Y-98240800D03*
%TD*%
D10*
%TO.C,JP4*%
X156845000Y-131368800D03*
D11*
X159385000Y-131368800D03*
%TD*%
D26*
%TO.C,D2*%
X131953000Y-87757000D03*
D27*
X128143000Y-87757000D03*
%TD*%
D14*
%TO.C,R20*%
X142875000Y-112649000D03*
D15*
X135255000Y-112649000D03*
%TD*%
D16*
%TO.C,A2*%
X185470800Y-116205000D03*
D15*
X185470800Y-118745000D03*
X185470800Y-121285000D03*
X185470800Y-123825000D03*
X185470800Y-126365000D03*
X185470800Y-128905000D03*
X185470800Y-131445000D03*
X185470800Y-133985000D03*
X198170800Y-133985000D03*
X198170800Y-131445000D03*
X198170800Y-128905000D03*
X198170800Y-126365000D03*
X198170800Y-123825000D03*
X198170800Y-121285000D03*
X198170800Y-118745000D03*
X198170800Y-116205000D03*
%TD*%
D14*
%TO.C,R9*%
X145313400Y-109220000D03*
D15*
X152933400Y-109220000D03*
%TD*%
D18*
%TO.C,SW2*%
X106045000Y-108149000D03*
X112545000Y-108149000D03*
X106045000Y-112649000D03*
X112545000Y-112649000D03*
%TD*%
D26*
%TO.C,D1*%
X112308000Y-98425000D03*
D27*
X108498000Y-98425000D03*
%TD*%
D10*
%TO.C,J5*%
X199009000Y-93980000D03*
D11*
X199009000Y-96520000D03*
X199009000Y-99060000D03*
X199009000Y-101600000D03*
X199009000Y-104140000D03*
X199009000Y-106680000D03*
%TD*%
D16*
%TO.C,C1*%
X118618000Y-108641000D03*
D14*
X118618000Y-112141000D03*
%TD*%
D16*
%TO.C,C11*%
X177038000Y-108260000D03*
D14*
X177038000Y-111760000D03*
%TD*%
%TO.C,R7*%
X160909000Y-92837000D03*
D15*
X168529000Y-92837000D03*
%TD*%
D14*
%TO.C,C14*%
X195179000Y-105029000D03*
X192679000Y-105029000D03*
%TD*%
%TO.C,R19*%
X109728000Y-124333000D03*
D15*
X117348000Y-124333000D03*
%TD*%
D14*
%TO.C,R18*%
X150876000Y-133604000D03*
D15*
X150876000Y-125984000D03*
%TD*%
D28*
%TO.C,REF\u002A\u002A*%
X97536000Y-142240000D03*
%TD*%
D23*
%TO.C,D5*%
X132588000Y-112395000D03*
D24*
X130048000Y-112395000D03*
%TD*%
D14*
%TO.C,R3*%
X149656800Y-102870000D03*
D15*
X157276800Y-102870000D03*
%TD*%
D16*
%TO.C,C12*%
X157962600Y-109768000D03*
D14*
X157962600Y-112268000D03*
%TD*%
%TO.C,R23*%
X115519200Y-103733600D03*
D15*
X112979200Y-103733600D03*
%TD*%
D10*
%TO.C,JP3*%
X179319000Y-131368800D03*
D11*
X181859000Y-131368800D03*
%TD*%
D19*
%TO.C,U3*%
X145592800Y-95091200D03*
D25*
X146862800Y-93021200D03*
X148132800Y-95091200D03*
%TD*%
D14*
%TO.C,R5*%
X151053800Y-92760800D03*
D15*
X158673800Y-92760800D03*
%TD*%
D18*
%TO.C,SW1*%
X102512000Y-112649000D03*
X96012000Y-112649000D03*
X102512000Y-108149000D03*
X96012000Y-108149000D03*
%TD*%
D10*
%TO.C,J8*%
X191135000Y-93980000D03*
D11*
X191135000Y-96520000D03*
X191135000Y-99060000D03*
X191135000Y-101600000D03*
%TD*%
D14*
%TO.C,R14*%
X150876000Y-115824000D03*
D15*
X150876000Y-123444000D03*
%TD*%
D28*
%TO.C,REF\u002A\u002A*%
X196596000Y-142240000D03*
%TD*%
D23*
%TO.C,D3*%
X127355600Y-112420400D03*
D24*
X124815600Y-112420400D03*
%TD*%
D14*
%TO.C,R1*%
X139750800Y-102870000D03*
D15*
X147370800Y-102870000D03*
%TD*%
D14*
%TO.C,R12*%
X159639000Y-98501200D03*
D15*
X159639000Y-95961200D03*
%TD*%
D10*
%TO.C,JP2*%
X179324000Y-135128000D03*
D11*
X181864000Y-135128000D03*
%TD*%
D10*
%TO.C,J4*%
X180924200Y-118491000D03*
D11*
X180924200Y-121031000D03*
X180924200Y-123571000D03*
X180924200Y-126111000D03*
%TD*%
D14*
%TO.C,R6*%
X160274000Y-102997000D03*
D15*
X167894000Y-102997000D03*
%TD*%
D29*
%TO.C,U2*%
X97231200Y-135636000D03*
X99771200Y-135636000D03*
X102311200Y-135636000D03*
X104851200Y-135636000D03*
X107391200Y-135636000D03*
X109931200Y-135636000D03*
X112471200Y-135636000D03*
X115011200Y-135636000D03*
X117551200Y-135636000D03*
X120091200Y-135636000D03*
X122631200Y-135636000D03*
X125171200Y-135636000D03*
X127711200Y-135636000D03*
X130251200Y-135636000D03*
X132791200Y-135636000D03*
X135331200Y-135636000D03*
X137871200Y-135636000D03*
X140411200Y-135636000D03*
X142951200Y-135636000D03*
X145491200Y-135636000D03*
X145491200Y-117856000D03*
X142951200Y-117856000D03*
X140411200Y-117856000D03*
X137871200Y-117856000D03*
X135331200Y-117856000D03*
X132791200Y-117856000D03*
X130251200Y-117856000D03*
X127711200Y-117856000D03*
X125171200Y-117856000D03*
X122631200Y-117856000D03*
X120091200Y-117856000D03*
X117551200Y-117856000D03*
X115011200Y-117856000D03*
X112471200Y-117856000D03*
X109931200Y-117856000D03*
X107391200Y-117856000D03*
X104851200Y-117856000D03*
X102311200Y-117856000D03*
X99771200Y-117856000D03*
X97231200Y-117856000D03*
%TD*%
M02*
