M48
; DRILL file {KiCad 7.0.1} date Mon Jul 10 14:16:05 2023
; FORMAT={-:-/ absolute / inch / decimal}
; #@! TF.CreationDate,2023-07-10T14:16:05+02:00
; #@! TF.GenerationSoftware,Kicad,Pcbnew,7.0.1
; #@! TF.FileFunction,Plated,1,2,PTH
FMAT,2
INCH
; #@! TA.AperFunction,Plated,PTH,ViaDrill
T1C0.0157
; #@! TA.AperFunction,Plated,PTH,ComponentDrill
T2C0.0295
; #@! TA.AperFunction,Plated,PTH,ComponentDrill
T3C0.0300
; #@! TA.AperFunction,Plated,PTH,ComponentDrill
T4C0.0315
; #@! TA.AperFunction,Plated,PTH,ComponentDrill
T5C0.0354
; #@! TA.AperFunction,Plated,PTH,ComponentDrill
T6C0.0394
; #@! TA.AperFunction,Plated,PTH,ComponentDrill
T7C0.0433
; #@! TA.AperFunction,Plated,PTH,ComponentDrill
T8C0.0512
; #@! TA.AperFunction,Plated,PTH,ComponentDrill
T9C0.1260
%
G90
G05
T1
X4.29Y-4.284
X4.432Y-4.972
X4.556Y-4.184
X4.622Y-4.556
X4.634Y-4.728
X4.738Y-3.716
X4.804Y-4.1204
X4.826Y-4.508
X4.84Y-4.946
X4.93Y-4.908
X4.988Y-3.756
X5.006Y-5.044
X5.018Y-4.5705
X5.026Y-5.086
X5.028Y-4.728
X5.038Y-4.9745
X5.128Y-4.1375
X5.196Y-4.714
X5.242Y-4.492
X5.246Y-4.792
X5.254Y-4.87
X5.256Y-4.5882
X5.314Y-4.79
X5.37Y-4.79
X5.39Y-4.178
X5.414Y-4.494
X5.42Y-3.89
X5.448Y-4.786
X5.456Y-4.456
X5.47Y-3.988
X5.472Y-4.83
X5.474Y-3.93
X5.51Y-4.57
X5.516Y-4.494
X5.52Y-3.79
X5.52Y-4.384
X5.542Y-3.596
X5.588Y-4.5
X5.606Y-4.148
X5.612Y-4.236
X5.672Y-4.2645
X5.68Y-3.5615
X5.729Y-4.973
X5.748Y-4.732
X5.7762Y-4.4862
X5.78Y-3.56
X5.8Y-4.354
X5.808Y-4.6685
X5.818Y-4.236
X5.828Y-4.39
X5.846Y-4.702
X5.852Y-4.768
X5.88Y-3.6185
X5.964Y-4.262
X5.99Y-4.606
X5.994Y-4.684
X6.0Y-4.768
X6.012Y-4.808
X6.0635Y-4.6548
X6.084Y-5.39
X6.108Y-4.19
X6.13Y-4.474
X6.142Y-4.0975
X6.144Y-5.02
X6.174Y-4.656
X6.186Y-4.822
X6.216Y-4.496
X6.266Y-4.0975
X6.334Y-4.576
X6.336Y-5.08
X6.34Y-3.726
X6.372Y-4.432
X6.384Y-4.3501
X6.388Y-3.612
X6.394Y-5.39
X6.416Y-3.7555
X6.464Y-3.6875
X6.474Y-3.574
X6.512Y-4.836
X6.554Y-5.01
X6.574Y-3.652
X6.592Y-4.558
X6.6Y-4.498
X6.61Y-4.13
X6.668Y-4.698
X6.674Y-4.528
X6.7081Y-3.6036
X6.728Y-3.726
X6.734Y-3.57
X6.748Y-4.194
X6.752Y-4.132
X6.776Y-3.618
X6.778Y-4.732
X6.834Y-3.6169
X6.89Y-4.318
X6.9044Y-3.6419
X6.928Y-4.16
X6.946Y-3.804
X6.988Y-3.902
X6.992Y-3.664
X7.004Y-3.848
X7.016Y-4.528
X7.018Y-4.476
X7.066Y-4.09
X7.144Y-4.23
X7.206Y-4.238
X7.214Y-4.286
X7.28Y-3.934
X7.282Y-3.62
X7.286Y-4.096
X7.316Y-4.066
X7.338Y-4.1545
X7.382Y-3.56
X7.416Y-3.756
X7.4195Y-3.936
X7.422Y-4.452
X7.428Y-3.3455
X7.4389Y-3.6431
X7.44Y-4.0825
X7.476Y-4.054
X7.478Y-3.94
X7.484Y-4.616
X7.516Y-4.552
X7.536Y-3.344
X7.552Y-3.574
X7.5545Y-4.0825
X7.556Y-3.626
X7.586Y-3.548
X7.624Y-4.664
X7.632Y-3.7537
X7.6734Y-4.2001
X7.68Y-4.566
T2
X4.215Y-4.075
X4.265Y-4.125
X4.315Y-4.075
X5.732Y-3.728
X5.782Y-3.678
X5.832Y-3.728
X6.416Y-3.852
X6.466Y-3.802
X6.516Y-3.852
T3
X3.828Y-4.64
X3.828Y-5.34
X3.928Y-4.64
X3.928Y-5.34
X4.028Y-4.64
X4.028Y-5.34
X4.128Y-4.64
X4.128Y-5.34
X4.228Y-4.64
X4.228Y-5.34
X4.328Y-4.64
X4.328Y-5.34
X4.428Y-4.64
X4.428Y-5.34
X4.528Y-4.64
X4.528Y-5.34
X4.628Y-4.64
X4.628Y-5.34
X4.728Y-4.64
X4.728Y-5.34
X4.828Y-4.64
X4.828Y-5.34
X4.928Y-4.64
X4.928Y-5.34
X5.028Y-4.64
X5.028Y-5.34
X5.128Y-4.64
X5.128Y-5.34
X5.228Y-4.64
X5.228Y-5.34
X5.328Y-4.64
X5.328Y-5.34
X5.428Y-4.64
X5.428Y-5.34
X5.528Y-4.64
X5.528Y-5.34
X5.628Y-4.64
X5.628Y-5.34
X5.728Y-4.64
X5.728Y-5.34
T4
X3.93Y-4.895
X3.93Y-5.055
X4.23Y-4.895
X4.23Y-5.055
X4.32Y-4.895
X4.32Y-5.055
X4.448Y-4.084
X4.502Y-3.68
X4.548Y-4.084
X4.5811Y-3.86
X4.6004Y-3.68
X4.62Y-4.895
X4.62Y-5.055
X4.67Y-4.2772
X4.67Y-4.415
X4.6811Y-3.86
X4.6886Y-3.68
X4.787Y-3.68
X4.9708Y-3.645
X5.0692Y-3.645
X5.2Y-3.654
X5.3Y-3.654
X5.325Y-4.435
X5.327Y-4.3
X5.502Y-4.05
X5.502Y-4.172
X5.507Y-3.7249
X5.507Y-3.8627
X5.625Y-4.435
X5.627Y-4.3
X5.72Y-4.43
X5.721Y-4.3
X5.7228Y-3.91
X5.802Y-4.05
X5.802Y-4.172
X5.8212Y-3.91
X5.892Y-4.05
X5.892Y-4.172
X5.94Y-4.56
X5.94Y-4.86
X5.94Y-4.96
X5.94Y-5.26
X5.947Y-3.652
X6.02Y-4.43
X6.021Y-4.3
X6.065Y-4.56
X6.065Y-4.86
X6.079Y-3.7996
X6.079Y-3.898
X6.192Y-4.05
X6.192Y-4.172
X6.219Y-4.3216
X6.219Y-4.42
X6.247Y-3.652
X6.285Y-3.778
X6.285Y-3.878
X6.31Y-4.055
X6.3136Y-4.175
X6.335Y-3.655
X6.412Y-4.175
X6.417Y-4.58
X6.417Y-4.68
X6.417Y-4.78
X6.417Y-4.88
X6.417Y-4.98
X6.417Y-5.08
X6.417Y-5.18
X6.417Y-5.28
X6.605Y-4.2522
X6.605Y-4.39
X6.61Y-4.055
X6.635Y-3.655
X6.65Y-3.78
X6.65Y-3.88
X6.845Y-3.9366
X6.845Y-4.035
X6.917Y-4.58
X6.917Y-4.68
X6.917Y-4.78
X6.917Y-4.88
X6.917Y-4.98
X6.917Y-5.08
X6.917Y-5.18
X6.917Y-5.28
X6.97Y-4.2622
X6.97Y-4.4
X7.302Y-4.575
X7.302Y-4.675
X7.302Y-4.775
X7.302Y-4.875
X7.302Y-4.975
X7.302Y-5.075
X7.302Y-5.175
X7.302Y-5.275
X7.315Y-4.2572
X7.315Y-4.395
X7.5858Y-4.135
X7.6842Y-4.135
X7.802Y-4.575
X7.802Y-4.675
X7.802Y-4.775
X7.802Y-4.875
X7.802Y-4.975
X7.802Y-5.075
X7.802Y-5.175
X7.802Y-5.275
T5
X4.914Y-4.426
X5.014Y-4.426
X5.12Y-4.425
X5.22Y-4.425
X7.54Y-4.44
X7.635Y-4.25
X7.641Y-3.43
X7.73Y-4.44
X7.741Y-3.43
X7.841Y-3.43
T6
X4.507Y-3.51
X4.5739Y-3.51
X4.6409Y-3.51
X4.7078Y-3.51
X4.7747Y-3.51
X5.532Y-3.41
X5.532Y-3.51
X5.632Y-3.41
X5.632Y-3.51
X5.732Y-3.41
X5.732Y-3.51
X5.832Y-3.41
X5.832Y-3.51
X5.932Y-3.41
X5.932Y-3.51
X6.032Y-3.41
X6.032Y-3.51
X6.132Y-3.41
X6.132Y-3.51
X6.175Y-5.172
X6.175Y-5.32
X6.232Y-3.41
X6.232Y-3.51
X6.239Y-4.671
X6.239Y-4.771
X6.239Y-4.871
X6.239Y-4.971
X6.275Y-5.172
X6.275Y-5.32
X6.332Y-3.41
X6.332Y-3.51
X6.432Y-3.41
X6.432Y-3.51
X6.532Y-3.41
X6.532Y-3.51
X6.632Y-3.41
X6.632Y-3.51
X6.732Y-3.41
X6.732Y-3.51
X6.832Y-3.41
X6.832Y-3.51
X6.932Y-3.41
X6.932Y-3.51
X7.032Y-3.41
X7.032Y-3.51
X7.0598Y-5.172
X7.06Y-3.7
X7.06Y-3.8
X7.06Y-3.9
X7.06Y-4.0
X7.06Y-5.32
X7.123Y-4.665
X7.123Y-4.765
X7.123Y-4.865
X7.123Y-4.965
X7.132Y-3.41
X7.132Y-3.51
X7.1598Y-5.172
X7.16Y-5.32
X7.215Y-3.7
X7.215Y-3.8
X7.215Y-3.9
X7.215Y-4.0
X7.232Y-3.41
X7.232Y-3.51
X7.332Y-3.41
X7.332Y-3.51
X7.37Y-3.7
X7.37Y-3.8
X7.37Y-3.9
X7.37Y-4.0
X7.432Y-3.41
X7.432Y-3.51
X7.525Y-3.7
X7.525Y-3.8
X7.525Y-3.9
X7.525Y-4.0
X7.68Y-3.7
X7.68Y-3.8
X7.68Y-3.9
X7.68Y-4.0
X7.835Y-3.7
X7.835Y-3.8
X7.835Y-3.9
X7.835Y-4.0
X7.835Y-4.1
X7.835Y-4.2
T7
X3.78Y-4.2578
X3.78Y-4.435
X3.93Y-3.455
X3.93Y-3.655
X3.93Y-3.855
X3.93Y-4.055
X4.0359Y-4.2578
X4.0359Y-4.435
X4.175Y-4.2578
X4.175Y-4.435
X4.29Y-3.44
X4.29Y-3.54
X4.29Y-3.64
X4.4309Y-4.2578
X4.4309Y-4.435
T8
X4.2716Y-3.875
X4.4216Y-3.875
X5.045Y-3.455
X5.195Y-3.455
T9
X3.84Y-5.6
X7.74Y-5.6
T0
M30
